<mxfile host="app.diagrams.net" agent="Mozilla/5.0 (Windows NT 10.0; Win64; x64) AppleWebKit/537.36 (KHTML, like Gecko) Chrome/138.0.0.0 Safari/537.36 Edg/138.0.0.0" version="28.0.7">
  <diagram name="Page-1" id="72_avaMgvX4w_6EA28CT">
    <mxGraphModel dx="1945" dy="1265" grid="1" gridSize="10" guides="1" tooltips="1" connect="1" arrows="1" fold="1" page="1" pageScale="1" pageWidth="850" pageHeight="1100" math="0" shadow="0">
      <root>
        <mxCell id="0" />
        <mxCell id="1" parent="0" />
        <mxCell id="DvurCC7pu2oYbVoqffAP-1" value="Admin" style="shape=umlActor;verticalLabelPosition=bottom;verticalAlign=top;html=1;outlineConnect=0;" vertex="1" parent="1">
          <mxGeometry x="150" y="340" width="70" height="130" as="geometry" />
        </mxCell>
        <mxCell id="DvurCC7pu2oYbVoqffAP-2" value="User" style="shape=umlActor;verticalLabelPosition=bottom;verticalAlign=top;html=1;outlineConnect=0;" vertex="1" parent="1">
          <mxGeometry x="150" y="1180" width="70" height="130" as="geometry" />
        </mxCell>
        <mxCell id="DvurCC7pu2oYbVoqffAP-4" value="addProduct" style="ellipse;whiteSpace=wrap;html=1;" vertex="1" parent="1">
          <mxGeometry x="430" y="70" width="110" height="60" as="geometry" />
        </mxCell>
        <mxCell id="DvurCC7pu2oYbVoqffAP-5" value="updateProduct" style="ellipse;whiteSpace=wrap;html=1;" vertex="1" parent="1">
          <mxGeometry x="430" y="180" width="110" height="60" as="geometry" />
        </mxCell>
        <mxCell id="DvurCC7pu2oYbVoqffAP-6" value="getProductDetails" style="ellipse;whiteSpace=wrap;html=1;" vertex="1" parent="1">
          <mxGeometry x="430" y="290" width="110" height="60" as="geometry" />
        </mxCell>
        <mxCell id="DvurCC7pu2oYbVoqffAP-7" value="deleteProduct" style="ellipse;whiteSpace=wrap;html=1;" vertex="1" parent="1">
          <mxGeometry x="430" y="400" width="110" height="60" as="geometry" />
        </mxCell>
        <mxCell id="DvurCC7pu2oYbVoqffAP-8" value="getAllProducts" style="ellipse;whiteSpace=wrap;html=1;" vertex="1" parent="1">
          <mxGeometry x="430" y="510" width="110" height="60" as="geometry" />
        </mxCell>
        <mxCell id="DvurCC7pu2oYbVoqffAP-9" value="addToCart" style="ellipse;whiteSpace=wrap;html=1;" vertex="1" parent="1">
          <mxGeometry x="440" y="1390" width="110" height="60" as="geometry" />
        </mxCell>
        <mxCell id="DvurCC7pu2oYbVoqffAP-10" value="removeFromCart" style="ellipse;whiteSpace=wrap;html=1;" vertex="1" parent="1">
          <mxGeometry x="440" y="1470" width="110" height="60" as="geometry" />
        </mxCell>
        <mxCell id="DvurCC7pu2oYbVoqffAP-11" value="getCartDetails" style="ellipse;whiteSpace=wrap;html=1;" vertex="1" parent="1">
          <mxGeometry x="440" y="1570" width="110" height="60" as="geometry" />
        </mxCell>
        <mxCell id="DvurCC7pu2oYbVoqffAP-12" value="createOrder" style="ellipse;whiteSpace=wrap;html=1;" vertex="1" parent="1">
          <mxGeometry x="440" y="1300" width="110" height="60" as="geometry" />
        </mxCell>
        <mxCell id="DvurCC7pu2oYbVoqffAP-13" value="getOrderDetails" style="ellipse;whiteSpace=wrap;html=1;" vertex="1" parent="1">
          <mxGeometry x="440" y="1120" width="110" height="60" as="geometry" />
        </mxCell>
        <mxCell id="DvurCC7pu2oYbVoqffAP-14" value="updateOrderStatus" style="ellipse;whiteSpace=wrap;html=1;" vertex="1" parent="1">
          <mxGeometry x="440" y="1200" width="110" height="60" as="geometry" />
        </mxCell>
        <mxCell id="DvurCC7pu2oYbVoqffAP-16" value="getPaymentStatus" style="ellipse;whiteSpace=wrap;html=1;" vertex="1" parent="1">
          <mxGeometry x="440" y="960" width="110" height="60" as="geometry" />
        </mxCell>
        <mxCell id="DvurCC7pu2oYbVoqffAP-17" value="registerUser" style="ellipse;whiteSpace=wrap;html=1;" vertex="1" parent="1">
          <mxGeometry x="430" y="740" width="110" height="60" as="geometry" />
        </mxCell>
        <mxCell id="DvurCC7pu2oYbVoqffAP-18" value="loginUser" style="ellipse;whiteSpace=wrap;html=1;" vertex="1" parent="1">
          <mxGeometry x="440" y="850" width="110" height="60" as="geometry" />
        </mxCell>
        <mxCell id="DvurCC7pu2oYbVoqffAP-19" value="getUserProfile" style="ellipse;whiteSpace=wrap;html=1;" vertex="1" parent="1">
          <mxGeometry x="430" y="620" width="110" height="60" as="geometry" />
        </mxCell>
        <mxCell id="DvurCC7pu2oYbVoqffAP-20" value="updateUserProfile" style="ellipse;whiteSpace=wrap;html=1;" vertex="1" parent="1">
          <mxGeometry x="440" y="1650" width="110" height="60" as="geometry" />
        </mxCell>
        <mxCell id="DvurCC7pu2oYbVoqffAP-21" value="" style="endArrow=classic;html=1;rounded=0;" edge="1" parent="1">
          <mxGeometry width="50" height="50" relative="1" as="geometry">
            <mxPoint x="240" y="400" as="sourcePoint" />
            <mxPoint x="420" y="120" as="targetPoint" />
          </mxGeometry>
        </mxCell>
        <mxCell id="DvurCC7pu2oYbVoqffAP-22" value="" style="endArrow=classic;html=1;rounded=0;" edge="1" parent="1">
          <mxGeometry width="50" height="50" relative="1" as="geometry">
            <mxPoint x="240" y="400" as="sourcePoint" />
            <mxPoint x="420" y="220" as="targetPoint" />
          </mxGeometry>
        </mxCell>
        <mxCell id="DvurCC7pu2oYbVoqffAP-23" value="" style="endArrow=classic;html=1;rounded=0;" edge="1" parent="1">
          <mxGeometry width="50" height="50" relative="1" as="geometry">
            <mxPoint x="240" y="400" as="sourcePoint" />
            <mxPoint x="410" y="320" as="targetPoint" />
          </mxGeometry>
        </mxCell>
        <mxCell id="DvurCC7pu2oYbVoqffAP-24" value="" style="endArrow=classic;html=1;rounded=0;" edge="1" parent="1">
          <mxGeometry width="50" height="50" relative="1" as="geometry">
            <mxPoint x="240" y="400" as="sourcePoint" />
            <mxPoint x="420" y="410" as="targetPoint" />
          </mxGeometry>
        </mxCell>
        <mxCell id="DvurCC7pu2oYbVoqffAP-25" value="" style="endArrow=classic;html=1;rounded=0;" edge="1" parent="1">
          <mxGeometry width="50" height="50" relative="1" as="geometry">
            <mxPoint x="240" y="400" as="sourcePoint" />
            <mxPoint x="420" y="520" as="targetPoint" />
          </mxGeometry>
        </mxCell>
        <mxCell id="DvurCC7pu2oYbVoqffAP-26" value="" style="endArrow=classic;html=1;rounded=0;" edge="1" parent="1">
          <mxGeometry width="50" height="50" relative="1" as="geometry">
            <mxPoint x="240" y="1250" as="sourcePoint" />
            <mxPoint x="410" y="670" as="targetPoint" />
          </mxGeometry>
        </mxCell>
        <mxCell id="DvurCC7pu2oYbVoqffAP-27" value="" style="endArrow=classic;html=1;rounded=0;" edge="1" parent="1">
          <mxGeometry width="50" height="50" relative="1" as="geometry">
            <mxPoint x="240" y="1250" as="sourcePoint" />
            <mxPoint x="420" y="780" as="targetPoint" />
          </mxGeometry>
        </mxCell>
        <mxCell id="DvurCC7pu2oYbVoqffAP-28" value="" style="endArrow=classic;html=1;rounded=0;" edge="1" parent="1">
          <mxGeometry width="50" height="50" relative="1" as="geometry">
            <mxPoint x="240" y="1250" as="sourcePoint" />
            <mxPoint x="420" y="890" as="targetPoint" />
          </mxGeometry>
        </mxCell>
        <mxCell id="DvurCC7pu2oYbVoqffAP-29" value="" style="endArrow=classic;html=1;rounded=0;" edge="1" parent="1">
          <mxGeometry width="50" height="50" relative="1" as="geometry">
            <mxPoint x="240" y="1250" as="sourcePoint" />
            <mxPoint x="420" y="1000" as="targetPoint" />
          </mxGeometry>
        </mxCell>
        <mxCell id="DvurCC7pu2oYbVoqffAP-30" value="" style="endArrow=classic;html=1;rounded=0;" edge="1" parent="1">
          <mxGeometry width="50" height="50" relative="1" as="geometry">
            <mxPoint x="240" y="1250" as="sourcePoint" />
            <mxPoint x="430" y="1080" as="targetPoint" />
          </mxGeometry>
        </mxCell>
        <mxCell id="DvurCC7pu2oYbVoqffAP-31" value="" style="endArrow=classic;html=1;rounded=0;" edge="1" parent="1">
          <mxGeometry width="50" height="50" relative="1" as="geometry">
            <mxPoint x="240" y="1250" as="sourcePoint" />
            <mxPoint x="430" y="1160" as="targetPoint" />
          </mxGeometry>
        </mxCell>
        <mxCell id="DvurCC7pu2oYbVoqffAP-32" value="" style="endArrow=classic;html=1;rounded=0;" edge="1" parent="1">
          <mxGeometry width="50" height="50" relative="1" as="geometry">
            <mxPoint x="240" y="1250" as="sourcePoint" />
            <mxPoint x="420" y="1580" as="targetPoint" />
          </mxGeometry>
        </mxCell>
        <mxCell id="DvurCC7pu2oYbVoqffAP-33" value="" style="endArrow=classic;html=1;rounded=0;" edge="1" parent="1">
          <mxGeometry width="50" height="50" relative="1" as="geometry">
            <mxPoint x="240" y="1250" as="sourcePoint" />
            <mxPoint x="430" y="1660" as="targetPoint" />
          </mxGeometry>
        </mxCell>
        <mxCell id="DvurCC7pu2oYbVoqffAP-34" value="" style="endArrow=classic;html=1;rounded=0;" edge="1" parent="1">
          <mxGeometry width="50" height="50" relative="1" as="geometry">
            <mxPoint x="240" y="1250" as="sourcePoint" />
            <mxPoint x="430" y="1490" as="targetPoint" />
          </mxGeometry>
        </mxCell>
        <mxCell id="DvurCC7pu2oYbVoqffAP-35" value="" style="endArrow=classic;html=1;rounded=0;" edge="1" parent="1">
          <mxGeometry width="50" height="50" relative="1" as="geometry">
            <mxPoint x="240" y="1250" as="sourcePoint" />
            <mxPoint x="420" y="1410" as="targetPoint" />
          </mxGeometry>
        </mxCell>
        <mxCell id="DvurCC7pu2oYbVoqffAP-36" value="" style="endArrow=classic;html=1;rounded=0;" edge="1" parent="1">
          <mxGeometry width="50" height="50" relative="1" as="geometry">
            <mxPoint x="240" y="1250" as="sourcePoint" />
            <mxPoint x="430" y="1230" as="targetPoint" />
          </mxGeometry>
        </mxCell>
        <mxCell id="DvurCC7pu2oYbVoqffAP-37" value="" style="endArrow=classic;html=1;rounded=0;" edge="1" parent="1">
          <mxGeometry width="50" height="50" relative="1" as="geometry">
            <mxPoint x="240" y="1250" as="sourcePoint" />
            <mxPoint x="410" y="550" as="targetPoint" />
          </mxGeometry>
        </mxCell>
        <mxCell id="DvurCC7pu2oYbVoqffAP-38" value="" style="endArrow=classic;html=1;rounded=0;" edge="1" parent="1">
          <mxGeometry width="50" height="50" relative="1" as="geometry">
            <mxPoint x="240" y="400" as="sourcePoint" />
            <mxPoint x="420" y="620" as="targetPoint" />
          </mxGeometry>
        </mxCell>
        <mxCell id="DvurCC7pu2oYbVoqffAP-39" value="" style="endArrow=classic;html=1;rounded=0;" edge="1" parent="1">
          <mxGeometry width="50" height="50" relative="1" as="geometry">
            <mxPoint x="240" y="398.6666259765625" as="sourcePoint" />
            <mxPoint x="420" y="740" as="targetPoint" />
          </mxGeometry>
        </mxCell>
        <mxCell id="DvurCC7pu2oYbVoqffAP-40" value="" style="endArrow=classic;html=1;rounded=0;" edge="1" parent="1">
          <mxGeometry width="50" height="50" relative="1" as="geometry">
            <mxPoint x="240" y="400" as="sourcePoint" />
            <mxPoint x="430" y="866" as="targetPoint" />
          </mxGeometry>
        </mxCell>
        <mxCell id="DvurCC7pu2oYbVoqffAP-41" value="" style="endArrow=classic;html=1;rounded=0;" edge="1" parent="1">
          <mxGeometry width="50" height="50" relative="1" as="geometry">
            <mxPoint x="240" y="393.93937544389206" as="sourcePoint" />
            <mxPoint x="430" y="980" as="targetPoint" />
          </mxGeometry>
        </mxCell>
        <mxCell id="DvurCC7pu2oYbVoqffAP-42" value="processPayment" style="ellipse;whiteSpace=wrap;html=1;" vertex="1" parent="1">
          <mxGeometry x="440" y="1040" width="110" height="60" as="geometry" />
        </mxCell>
        <mxCell id="DvurCC7pu2oYbVoqffAP-44" value="" style="endArrow=classic;html=1;rounded=0;" edge="1" parent="1">
          <mxGeometry width="50" height="50" relative="1" as="geometry">
            <mxPoint x="240" y="1250" as="sourcePoint" />
            <mxPoint x="430" y="1310" as="targetPoint" />
          </mxGeometry>
        </mxCell>
      </root>
    </mxGraphModel>
  </diagram>
</mxfile>
